<?xml version="1.0" encoding="UTF-8" standalone="no"?>
<!-- Created with Inkscape (http://www.inkscape.org/) -->

<svg
   xmlns:dc="http://purl.org/dc/elements/1.1/"
   xmlns:cc="http://creativecommons.org/ns#"
   xmlns:rdf="http://www.w3.org/1999/02/22-rdf-syntax-ns#"
   xmlns:svg="http://www.w3.org/2000/svg"
   xmlns="http://www.w3.org/2000/svg"
   xmlns:sodipodi="http://sodipodi.sourceforge.net/DTD/sodipodi-0.dtd"
   xmlns:inkscape="http://www.inkscape.org/namespaces/inkscape"
   width="140"
   height="60"
   id="svg4211"
   version="1.1"
   inkscape:version="0.48.3.1 r9886"
   sodipodi:docname="bitsket_mix_60.svg"
   inkscape:export-filename="/home/deanvlue/dev/bitsket/app/assets/images/bitsket_mix_60.png"
   inkscape:export-xdpi="300"
   inkscape:export-ydpi="300">
  <defs
     id="defs4213" />
  <sodipodi:namedview
     id="base"
     pagecolor="#ffffff"
     bordercolor="#666666"
     borderopacity="1.0"
     inkscape:pageopacity="0.0"
     inkscape:pageshadow="2"
     inkscape:zoom="1.1704291"
     inkscape:cx="419.00821"
     inkscape:cy="-153.39382"
     inkscape:document-units="px"
     inkscape:current-layer="layer1"
     showgrid="false" />
  <metadata
     id="metadata4216">
    <rdf:RDF>
      <cc:Work
         rdf:about="">
        <dc:format>image/svg+xml</dc:format>
        <dc:type
           rdf:resource="http://purl.org/dc/dcmitype/StillImage" />
        <dc:title></dc:title>
      </cc:Work>
    </rdf:RDF>
  </metadata>
  <g
     inkscape:label="Layer 1"
     inkscape:groupmode="layer"
     id="layer1"
     transform="translate(0,-992.36218)">
    <text
       xml:space="preserve"
       style="font-size:40px;font-style:normal;font-variant:normal;font-weight:normal;font-stretch:normal;line-height:125%;letter-spacing:0px;word-spacing:0px;fill:#ffffff;fill-opacity:1;stroke:none;font-family:Ubuntu;-inkscape-font-specification:Ubuntu"
       x="45.348751"
       y="1035.0685"
       id="text3871"
       sodipodi:linespacing="125%"><tspan
         sodipodi:role="line"
         id="tspan3873"
         x="45.348751"
         y="1035.0685"
         style="font-size:30px;font-style:normal;font-variant:normal;font-weight:normal;font-stretch:normal;text-align:start;line-height:125%;writing-mode:lr-tb;text-anchor:start;font-family:Ubuntu Condensed;-inkscape-font-specification:'Ubuntu Condensed,'">BITSKET</tspan></text>
    <g
       transform="matrix(0.03286852,0,0,0.03286852,0.7872253,1002.8923)"
       id="g4274">
      <path
         style="color:#000000;fill:#75efd8;fill-opacity:1;fill-rule:evenodd;stroke:none;stroke-width:1;marker:none;visibility:visible;display:inline;overflow:visible;enable-background:accumulate"
         d="m 152.07115,757.40523 998.93245,0 c 54.6546,0 59.5262,59.66579 65.9215,118.21374 l 29.7573,272.42163 c 6.3953,58.548 -41.0242,94.408 -95.6788,94.408 l -998.93245,0 c -54.65459,0 -103.620141,-47.6244 -98.654497,-106.3109 L 77.22245,854.78889 c 4.965644,-58.68648 20.19411,-97.38366 74.8487,-97.38366 z"
         id="rect3812-0"
         inkscape:connector-curvature="0"
         sodipodi:nodetypes="sssssssss" />
      <rect
         style="color:#000000;fill:#3aeecc;fill-opacity:1;fill-rule:evenodd;stroke:none;stroke-width:1;marker:none;visibility:visible;display:inline;overflow:visible;enable-background:accumulate"
         id="rect3810-5"
         width="1133.7513"
         height="630.8537"
         x="79.796562"
         y="210.27342"
         rx="0" />
      <path
         style="color:#000000;fill:#0c5477;fill-opacity:1;fill-rule:evenodd;stroke:none;stroke-width:1;marker:none;visibility:visible;display:inline;overflow:visible;enable-background:accumulate"
         d="M 131.87182,10.899845 1168.9121,7.9241263 1070.2012,86.325659 1070.402,210.56724 228.76132,211.7613 230.9042,84.027366 C 196.42206,61.473597 163.56941,37.114019 131.87182,10.899845 z"
         id="rect3815-2"
         inkscape:connector-curvature="0"
         sodipodi:nodetypes="ccccccc" />
      <path
         style="color:#000000;fill:#3aeecc;fill-opacity:1;fill-rule:evenodd;stroke:none;stroke-width:1;marker:none;visibility:visible;display:inline;overflow:visible;enable-background:accumulate"
         d="M 130.78557,11.301443 234.93594,85.69457 133.76128,166.03917 z"
         id="rect3837-2"
         inkscape:connector-curvature="0"
         sodipodi:nodetypes="cccc" />
      <path
         style="color:#000000;fill:#3aeecc;fill-opacity:1;fill-rule:evenodd;stroke:none;stroke-width:1;marker:none;visibility:visible;display:inline;overflow:visible;enable-background:accumulate"
         d="m 1164.0469,10.498212 -95.2233,74.393127 92.5026,80.344601 z"
         id="rect3837-5-3"
         inkscape:connector-curvature="0"
         sodipodi:nodetypes="cccc" />
      <path
         sodipodi:type="arc"
         style="color:#000000;fill:#81580c;fill-opacity:1;fill-rule:evenodd;stroke:none;stroke-width:1;marker:none;visibility:visible;display:inline;overflow:visible;enable-background:accumulate"
         id="path3859-2"
         sodipodi:cx="437.90027"
         sodipodi:cy="487.69208"
         sodipodi:rx="29.075872"
         sodipodi:ry="28.194786"
         d="m 466.97614,487.69208 c 0,15.57155 -13.01771,28.19478 -29.07587,28.19478 -16.05816,0 -29.07587,-12.62323 -29.07587,-28.19478 0,-15.57155 13.01771,-28.19479 29.07587,-28.19479 16.05816,0 29.07587,12.62324 29.07587,28.19479 z"
         transform="matrix(1.688667,0,0,1.688667,-427.28151,-467.46555)" />
      <path
         sodipodi:type="arc"
         style="color:#000000;fill:#81580c;fill-opacity:1;fill-rule:evenodd;stroke:none;stroke-width:1;marker:none;visibility:visible;display:inline;overflow:visible;enable-background:accumulate"
         id="path3859-8-5"
         sodipodi:cx="437.90027"
         sodipodi:cy="487.69208"
         sodipodi:rx="29.075872"
         sodipodi:ry="28.194786"
         d="m 466.97614,487.69208 c 0,15.57155 -13.01771,28.19478 -29.07587,28.19478 -16.05816,0 -29.07587,-12.62323 -29.07587,-28.19478 0,-15.57155 13.01771,-28.19479 29.07587,-28.19479 16.05816,0 29.07587,12.62324 29.07587,28.19479 z"
         transform="matrix(1.688667,0,0,1.688667,236.82539,-464.08821)" />
      <g
         id="Bitcoin-7"
         transform="matrix(1.4096928,0,0,1.4096928,277.86323,412.45255)">
        <linearGradient
           gradientTransform="matrix(1,0,0,-1,-41.66,348.04)"
           gradientUnits="userSpaceOnUse"
           id="linearGradient4081-5"
           x1="41.66"
           x2="553.65997"
           y1="92.040001"
           y2="92.040001">
          <stop
             offset="0"
             style="stop-color:#F9AA4C"
             id="stop4083-1" />
          <stop
             offset="1"
             style="stop-color:#F7941F"
             id="stop4085-9" />
        </linearGradient>
        <path
           style="fill:#ee9226;fill-opacity:1"
           d="M 512,256 C 512,397.3849 397.3849,512 256,512 114.6151,512 0,397.3849 0,256 0,114.6151 114.6151,0 256,0 397.3849,0 512,114.6151 512,256 z"
           id="circle4058-1"
           inkscape:connector-curvature="0" />
        <path
           style="fill:#ffffff"
           inkscape:connector-curvature="0"
           d="m 367.781,228.248 c 4.725,-29.85 -19.322,-45.896 -52.204,-56.601 l 10.666,-40.437 -26.042,-6.134 -10.383,39.371 c -6.848,-1.613 -13.878,-3.134 -20.867,-4.642 l 10.459,-39.629 -26.028,-6.135 -10.673,40.422 c -5.666,-1.22 -11.229,-2.425 -16.629,-3.694 l 0.029,-0.127 -35.915,-8.475 -6.927,26.29 c 0,0 19.322,4.185 18.913,4.445 10.548,2.488 12.453,9.086 12.134,14.315 l -12.15,46.066 c 0.729,0.174 1.669,0.426 2.707,0.819 -0.868,-0.202 -1.794,-0.426 -2.751,-0.645 l -17.031,64.531 c -1.289,3.029 -4.562,7.571 -11.933,5.847 0.258,0.357 -18.929,-4.465 -18.929,-4.465 l -12.93,28.175 33.891,7.986 c 6.304,1.492 12.484,3.056 18.566,4.528 l -10.778,40.9 26.013,6.133 10.673,-40.464 c 7.106,1.823 14.005,3.504 20.755,5.088 l -10.637,40.276 26.042,6.133 10.778,-40.822 c 44.406,7.944 77.801,4.74 91.856,-33.221 11.326,-30.566 -0.564,-48.198 -23.928,-59.695 17.016,-3.709 29.834,-14.288 33.253,-36.139 z m -59.503,78.86 c -8.046,30.565 -62.5,14.041 -80.152,9.898 l 14.302,-54.183 c 17.652,4.165 74.262,12.409 65.85,44.285 z m 8.056,-79.301 c -7.343,27.803 -52.665,13.677 -67.366,10.214 l 12.966,-49.142 c 14.702,3.462 62.047,9.925 54.4,38.928 z"
           id="symbol_2_-1" />
      </g>
      <path
         inkscape:connector-curvature="0"
         style="color:#000000;fill:#000000;fill-opacity:0.09042556;fill-rule:evenodd;stroke:none;stroke-width:1;marker:none;visibility:visible;display:inline;overflow:visible;enable-background:accumulate"
         d="M 637.23467,416.66678 C 446.68732,419.49521 278.53019,540.76372 275.86001,835.35066 l 722.80225,0 C 998.82047,543.59215 833.41742,413.7547 637.23467,416.66678 z"
         id="path4172"
         sodipodi:nodetypes="sccs" />
      <path
         style="color:#000000;fill:#000000;fill-opacity:0.51063831;fill-rule:evenodd;stroke:none;stroke-width:1;marker:none;visibility:visible;display:inline;overflow:visible;enable-background:accumulate"
         d="m 269.25695,370.80664 c 0.0573,205.38235 166.58601,371.87614 371.98168,371.87614 205.39567,0 371.92447,-166.49379 371.98167,-371.87614 l -81.95311,0 c 0.008,0.8798 0.0527,1.75689 0.0527,2.63854 0,160.23616 -129.89795,290.1341 -290.1341,290.1341 -160.23614,0 -290.13409,-129.89794 -290.13409,-290.1341 0,-0.88165 0.0449,-1.75874 0.0527,-2.63854 l -81.84758,0 z"
         id="path3879-9-0"
         inkscape:connector-curvature="0" />
      <path
         style="color:#000000;fill:#ffffff;fill-opacity:1;fill-rule:evenodd;stroke:none;stroke-width:1;marker:none;visibility:visible;display:inline;overflow:visible;enable-background:accumulate"
         d="m 271.48054,356.06458 c 0.0572,205.38235 166.586,371.87613 371.98168,371.87613 205.39567,0 371.92448,-166.49378 371.98168,-371.87613 l -81.95313,0 c 0.008,0.87979 0.0527,1.75689 0.0527,2.63854 0,160.23616 -129.89796,290.1341 -290.1341,290.1341 -160.23614,0 -290.1341,-129.89794 -290.1341,-290.1341 0,-0.88165 0.0449,-1.75875 0.0527,-2.63854 l -81.84758,0 z"
         id="path3879-9"
         inkscape:connector-curvature="0" />
      <path
         style="color:#000000;fill:#11b595;fill-opacity:1;fill-rule:evenodd;stroke:none;stroke-width:1;marker:none;visibility:visible;display:inline;overflow:visible;enable-background:accumulate"
         d="m 1069.9224,85.838799 142.9575,125.141011 -142.37,-0.25498 z"
         id="rect3837-2-5"
         inkscape:connector-curvature="0"
         sodipodi:nodetypes="cccc" />
      <path
         style="color:#000000;fill:#11b595;fill-opacity:1;fill-rule:evenodd;stroke:none;stroke-width:1;marker:none;visibility:visible;display:inline;overflow:visible;enable-background:accumulate"
         d="M 234.67189,85.54026 79.709536,209.78572 228.6921,210.72481 z"
         id="rect3837-2-9"
         inkscape:connector-curvature="0"
         sodipodi:nodetypes="cccc" />
    </g>
  </g>
</svg>
